<svg xmlns="http://www.w3.org/2000/svg" version="1.1" xmlns:xlink="http://www.w3.org/1999/xlink" xmlns:svgjs="http://svgjs.dev/svgjs" width="1000" height="1000"><g clip-path="url(#SvgjsClipPath1341)"><rect width="1000" height="1000" fill="#ffffff"></rect><g transform="matrix(2.7607361963190185,0,0,2.7607361963190185,50,225.30674846625766)"><svg xmlns="http://www.w3.org/2000/svg" version="1.1" xmlns:xlink="http://www.w3.org/1999/xlink" xmlns:svgjs="http://svgjs.dev/svgjs" width="326" height="199"><svg width="326" height="199" viewBox="0 0 326 199" fill="none" xmlns="http://www.w3.org/2000/svg">
<path d="M62.1698 2.68751L53.4171 1.45741C51.6539 1.20961 50.0237 2.43806 49.7759 4.20124L46.6352 26.5488C46.3874 28.312 47.6158 29.9422 49.379 30.19L59.0842 31.554C60.8473 31.8018 62.4775 30.5735 62.7253 28.8103C63.2848 24.8293 63.6827 22.5342 68.1945 22.0614C72.0452 21.6579 82.2863 23.1277 81.452 29.0644L80.4587 36.1319C80.2153 37.8637 81.3962 39.4673 83.109 39.7586C83.14 39.7638 83.1712 39.7687 83.2025 39.7731C87.5907 40.3898 92.4418 41.7462 96.8704 41.6515C98.6912 41.6125 100.194 40.039 100.203 38.1501C100.222 34.3698 100.701 29.344 103.151 29.6883C107.049 30.236 109.932 30.5675 114.132 31.7485C121.762 33.8934 130.645 39.7799 136.532 44.1467C137.381 44.7763 138.672 43.51 138.034 42.6675C138.024 42.6542 138.021 42.6512 138.012 42.6373C137.716 42.1973 127.901 27.6615 119.215 20.7484C113.524 16.2192 110.123 13.6388 103.344 11.0031C94.6609 7.62676 85.971 6.03256 79.6682 8.04706C73.3653 10.0616 73.6309 15.6777 69.3637 13.7423C66.8048 12.5817 65.0279 10.1709 65.2806 7.31203C65.4668 5.20528 64.2642 2.98186 62.1698 2.68751Z" fill="#142E44"></path>
<path d="M83.2025 39.7731C83.1712 39.7687 83.14 39.7638 83.109 39.7586M83.2025 39.7731L83.109 39.7586M83.2025 39.7731C87.5907 40.3898 92.4418 41.7462 96.8704 41.6515M83.109 39.7586C81.3962 39.4673 80.2153 37.8637 80.4587 36.1319L81.452 29.0644C82.2863 23.1277 72.0452 21.6579 68.1945 22.0614C63.6827 22.5342 63.2848 24.8293 62.7253 28.8103C62.4775 30.5735 60.8473 31.8018 59.0842 31.554L49.379 30.19C47.6158 29.9422 46.3874 28.312 46.6352 26.5488L49.7759 4.20124C50.0237 2.43806 51.6539 1.20961 53.4171 1.45741L62.1698 2.68751C64.2642 2.98186 65.4668 5.20528 65.2806 7.31203C65.0279 10.1709 66.8048 12.5817 69.3637 13.7423C73.6309 15.6777 73.3653 10.0616 79.6682 8.04706C85.971 6.03256 94.6609 7.62676 103.344 11.0031C110.123 13.6388 113.524 16.2192 119.215 20.7484C127.901 27.6615 137.716 42.1973 138.012 42.6373C138.021 42.6512 138.024 42.6542 138.034 42.6675C138.672 43.51 137.381 44.7763 136.532 44.1467C130.645 39.7799 121.762 33.8934 114.132 31.7485C109.932 30.5675 107.049 30.236 103.151 29.6883C100.701 29.344 100.222 34.3698 100.203 38.1501C100.194 40.039 98.6912 41.6125 96.8704 41.6515M83.109 39.7586L76.9455 83.6141M96.8704 41.6515L90.7013 85.5473M90.7013 85.5473L91.5793 85.6707C93.3424 85.9185 94.5709 87.5488 94.3231 89.3119L84.4677 159.436C84.2199 161.2 82.5897 162.428 80.8266 162.18L65.3147 160C63.5515 159.752 62.3231 158.122 62.5709 156.359L72.4262 86.2345C72.674 84.4713 74.3042 83.2429 76.0674 83.4907L76.9455 83.6141M90.7013 85.5473C90.7013 85.5473 86.3958 85.9779 83.6807 85.5963C80.9656 85.2147 76.9455 83.6141 76.9455 83.6141" stroke="#142E44" stroke-linecap="round" stroke-linejoin="round"></path>
<rect width="140" height="140" transform="translate(12.2021 198.669) rotate(-95)" fill="#142E44"></rect>
<path d="M18.574 98.9964H29.302L37.51 149.396H29.59L28.15 139.388V139.532H19.15L17.71 149.396H10.366L18.574 98.9964ZM27.214 132.692L23.686 107.78H23.542L20.086 132.692H27.214ZM41.3524 98.9964H49.2724V142.196H62.3044V149.396H41.3524V98.9964ZM72.5036 98.9964H83.2316L91.4396 149.396H83.5196L82.0796 139.388V139.532H73.0796L71.6396 149.396H64.2956L72.5036 98.9964ZM81.1436 132.692L77.6156 107.78H77.4716L74.0156 132.692H81.1436ZM95.2821 98.9964H106.586L111.626 135.068H111.77L116.81 98.9964H128.114V149.396H120.626V111.236H120.482L114.722 149.396H108.098L102.338 111.236H102.194V149.396H95.2821V98.9964ZM145.472 150.116C141.584 150.116 138.608 149.012 136.544 146.804C134.48 144.596 133.448 141.476 133.448 137.444V110.948C133.448 106.916 134.48 103.796 136.544 101.588C138.608 99.3804 141.584 98.2764 145.472 98.2764C149.36 98.2764 152.336 99.3804 154.4 101.588C156.464 103.796 157.496 106.916 157.496 110.948V137.444C157.496 141.476 156.464 144.596 154.4 146.804C152.336 149.012 149.36 150.116 145.472 150.116ZM145.472 142.916C148.208 142.916 149.576 141.26 149.576 137.948V110.444C149.576 107.132 148.208 105.476 145.472 105.476C142.736 105.476 141.368 107.132 141.368 110.444V137.948C141.368 141.26 142.736 142.916 145.472 142.916Z" fill="#F2B705"></path>
<path d="M184.68 150.116C180.84 150.116 177.936 149.036 175.968 146.876C174 144.668 173.016 141.524 173.016 137.444V134.564H180.504V138.02C180.504 141.284 181.872 142.916 184.608 142.916C185.952 142.916 186.96 142.532 187.632 141.764C188.352 140.948 188.712 139.652 188.712 137.876C188.712 135.764 188.232 133.916 187.272 132.332C186.312 130.7 184.536 128.756 181.944 126.5C178.68 123.62 176.4 121.028 175.104 118.724C173.808 116.372 173.16 113.732 173.16 110.804C173.16 106.82 174.168 103.748 176.184 101.588C178.2 99.3804 181.128 98.2764 184.968 98.2764C188.76 98.2764 191.616 99.3804 193.536 101.588C195.504 103.748 196.488 106.868 196.488 110.948V113.036H189V110.444C189 108.716 188.664 107.468 187.992 106.7C187.32 105.884 186.336 105.476 185.04 105.476C182.4 105.476 181.08 107.084 181.08 110.3C181.08 112.124 181.56 113.828 182.52 115.412C183.528 116.996 185.328 118.916 187.92 121.172C191.232 124.052 193.512 126.668 194.76 129.02C196.008 131.372 196.632 134.132 196.632 137.3C196.632 141.428 195.6 144.596 193.536 146.804C191.52 149.012 188.568 150.116 184.68 150.116ZM207.365 106.196H199.085V98.9964H223.565V106.196H215.285V149.396H207.365V106.196ZM238.919 150.116C235.079 150.116 232.151 149.036 230.135 146.876C228.119 144.668 227.111 141.524 227.111 137.444V98.9964H235.031V138.02C235.031 139.748 235.367 140.996 236.039 141.764C236.759 142.532 237.767 142.916 239.063 142.916C240.359 142.916 241.343 142.532 242.015 141.764C242.735 140.996 243.095 139.748 243.095 138.02V98.9964H250.727V137.444C250.727 141.524 249.719 144.668 247.703 146.876C245.687 149.036 242.759 150.116 238.919 150.116ZM256.368 98.9964H268.464C272.4 98.9964 275.352 100.052 277.32 102.164C279.288 104.276 280.272 107.372 280.272 111.452V136.94C280.272 141.02 279.288 144.116 277.32 146.228C275.352 148.34 272.4 149.396 268.464 149.396H256.368V98.9964ZM268.32 142.196C269.616 142.196 270.6 141.812 271.272 141.044C271.992 140.276 272.352 139.028 272.352 137.3V111.092C272.352 109.364 271.992 108.116 271.272 107.348C270.6 106.58 269.616 106.196 268.32 106.196H264.288V142.196H268.32ZM285.618 98.9964H293.538V149.396H285.618V98.9964ZM310.918 150.116C307.03 150.116 304.054 149.012 301.99 146.804C299.926 144.596 298.894 141.476 298.894 137.444V110.948C298.894 106.916 299.926 103.796 301.99 101.588C304.054 99.3804 307.03 98.2764 310.918 98.2764C314.806 98.2764 317.782 99.3804 319.846 101.588C321.91 103.796 322.942 106.916 322.942 110.948V137.444C322.942 141.476 321.91 144.596 319.846 146.804C317.782 149.012 314.806 150.116 310.918 150.116ZM310.918 142.916C313.654 142.916 315.022 141.26 315.022 137.948V110.444C315.022 107.132 313.654 105.476 310.918 105.476C308.182 105.476 306.814 107.132 306.814 110.444V137.948C306.814 141.26 308.182 142.916 310.918 142.916Z" fill="#142E44"></path>
</svg></svg></g></g><defs><clipPath id="SvgjsClipPath1341"><rect width="1000" height="1000" x="0" y="0" rx="500" ry="500"></rect></clipPath></defs></svg>